<?xml version="1.0" encoding="utf-8"?>
<!-- Generator: Adobe Illustrator 15.0.0, SVG Export Plug-In . SVG Version: 6.00 Build 0)  -->
<!DOCTYPE svg PUBLIC "-//W3C//DTD SVG 1.1//EN" "http://www.w3.org/Graphics/SVG/1.1/DTD/svg11.dtd">
<svg version="1.1" id="Layer_1" xmlns="http://www.w3.org/2000/svg" xmlns:xlink="http://www.w3.org/1999/xlink" x="0px" y="0px"
	 width="800.18px" height="389.089px" viewBox="0 0 800.18 389.089" enable-background="new 0 0 800.18 389.089"
	 xml:space="preserve">
<path fill="none" stroke="#000000" stroke-width="10" stroke-linecap="round" d="M425.59,104.044
	c-26.467,7.445-54.776,13.813-81.948,21.781c-22.705,6.657-83.404,17.29-85.104,48.445c-1.581,28.985,42.07,37.652,64.055,39.548
	c42.942,3.703,82.991-5.058,123.997-16.023c9.743-2.605,30.306-6.165,37.774-13.025c7.901-7.258-1.339-6.007-9.006-6.729
	c-38.184-3.598-77.535-2.997-115.991-2.997c-48.845,0-97.194,3.88-145.777,8.722c-21.639,2.157-43.243,3.306-64.801,5.278
	c-9.54,0.873-21.855-1.039-30.897,2.052c19.675-0.458,38.818-3.858,58.705-4.048c65.442-0.624,130.984-1.438,196.498-1.026
	c83.125,0.522,166.769,2.643,249.817,5.8c33.977,1.292,69.856,2.499,103.82,0c1.477-1.622-0.795-0.073-1.143-0.777"/>
<path fill="none" stroke="#000000" stroke-width="10" stroke-linecap="round" d="M508.59,160.044
	c-1.303-0.077-2.587-0.066-3.849,0.151c-0.413,3.432-0.072,6.611,1.02,9.678c5.408,4.323,11.94,2.137,9.829-5.829"/>
<path fill="none" stroke="#000000" stroke-width="10" stroke-linecap="round" d="M526.59,158.044c-2.364,10.245,5.561,12.854,14,12"
	/>
<path fill="none" stroke="#000000" stroke-width="10" stroke-linecap="round" d="M553.59,171.044c-0.551-5.66-3.209-13.231,4-14"/>
<path fill="none" stroke="#000000" stroke-width="10" stroke-linecap="round" d="M528.59,136.044
	c-1.668,1.745-2.88,2.813-1.849,5.849c3.679,1.016,6.414,0.366,7.849-1.849"/>
<path fill="none" stroke="#000000" stroke-width="10" stroke-linecap="round" d="M574.59,156.044
	c-4.363,0.797-8.166,7.175-6.023,12.023c2.476,5.599,8.065,4.104,13.85,3.803c2.471-4.212,4.952-13.709-2.826-12.826"/>
<path fill="none" stroke="#000000" stroke-width="10" stroke-linecap="round" d="M595.59,156.044c-0.784,6.029,2.1,19.286,10,14"/>
<path fill="none" stroke="#000000" stroke-width="10" stroke-linecap="round" d="M596.59,139.044
	c-1.292,0.541-2.531-0.061-3.745,0.849c-1.4-1.105-1.323-2.167-1.255-3.849"/>
<path fill="none" stroke="#000000" stroke-width="10" stroke-linecap="round" d="M616.59,174.044
	c3.159,0.385,6.725,0.024,9.849-0.151c0.593-2.233,0.577-6.44,0-8.674c-4.815-1.755-9.55-0.437-13.678-3.345
	c-0.913-1.109-1.874-3.542-3.02-5.077c3.371-4.726,11.303-5.225,14.849-0.752"/>
</svg>
